# xmcd
#
# Track frame offsets: 
#        150
#        14612
#        35444
#        48367
#        63491
#        86493
#        105010
#        121241
#        145332
#        163289
#
# Disc length: 2434 seconds
#
# Revision: 0
# Processed by: cddbd v1.5.2PL0 Copyright (c) Steve Scherf et al.
# Submitted via: ExactAudioCopy v0.99pb4
#
DISCID=7f09800a
DTITLE=Dosi und Wudi - Kartoffelprinz
DYEAR=2006
DGENRE=Country
TTITLE0=Auf dem Hof
TTITLE1=Der Ritter Sigismund
TTITLE2=Hurra, wir haben einen Hund
TTITLE3=Im Zoo von Klein Kergisien
TTITLE4=In Afrika
TTITLE5=Kinderfest
TTITLE6=Paul der Gelbe Gaul
TTITLE7=Wenn Drachen fliegen
TTITLE8=Wir Fahren zur See
TTITLE9=Kartoffelprinz
EXTD=
EXTT0=
EXTT1=
EXTT2=
EXTT3=
EXTT4=
EXTT5=
EXTT6=
EXTT7=
EXTT8=
EXTT9=
PLAYORDER=
